<svg xmlns="http://www.w3.org/2000/svg" viewBox="0 0 800 620"><defs><linearGradient id="bg" x1="0" x2="1" y1="0" y2="1"><stop stop-color="#18181b"/><stop offset="1" stop-color="#09090b"/></linearGradient><linearGradient id="g" x1="0" x2="1"><stop stop-color="#818cf8"/><stop offset="1" stop-color="#22d3ee"/></linearGradient></defs><rect width="800" height="620" rx="42" fill="url(#bg)"/><g opacity=".22" stroke="#fff"><path d="M0 100h800M0 200h800M0 300h800M0 400h800M0 500h800"/><path d="M100 0v620M200 0v620M300 0v620M400 0v620M500 0v620M600 0v620M700 0v620"/></g><g transform="translate(230 105)"><path d="M55 280 80 80h250l25 200z" fill="#27272a" stroke="url(#g)" stroke-width="9"/><rect x="120" y="125" width="170" height="110" rx="18" fill="#111827" stroke="#818cf8" stroke-width="6"/><path d="M20 300h370" stroke="#22d3ee" stroke-width="14" stroke-linecap="round"/></g><text x="48" y="555" fill="#fafafa" font-family="Arial" font-size="34" font-weight="700">Desk Pro</text><text x="48" y="590" fill="#a1a1aa" font-family="Arial" font-size="18">LAYERFORGE / DIGITAL MANUFACTURING</text></svg>